<svg width="19" height="19" viewBox="0 0 19 19" fill="none" xmlns="http://www.w3.org/2000/svg">
<path d="M6.25781 11.8666C6.25781 11.5972 6.47614 11.3789 6.74547 11.3789H12.2723C12.5416 11.3789 12.7599 11.5972 12.7599 11.8666V16.9795C12.7599 17.367 12.3297 17.5997 12.0054 17.3877L9.77573 15.9298C9.61361 15.8238 9.40412 15.8238 9.24199 15.9298L7.01234 17.3877C6.688 17.5997 6.25781 17.367 6.25781 16.9795V11.8666Z" fill="#FF8730"/>
<path d="M6.35281 11.8666C6.35281 11.6497 6.52861 11.4739 6.74547 11.4739H12.2723C12.4891 11.4739 12.6649 11.6497 12.6649 11.8666V16.9795C12.6649 17.2915 12.3185 17.4789 12.0574 17.3082L9.82772 15.8503C9.63402 15.7236 9.38371 15.7236 9.19001 15.8503L6.96035 17.3082C6.69919 17.4789 6.35281 17.2915 6.35281 16.9795V11.8666Z" stroke="url(#paint0_linear_466_2016)" stroke-opacity="0.1" stroke-width="0.19"/>
<path d="M8.2322 1.85144C8.87324 1.00602 10.1442 1.00602 10.7852 1.85144C11.1793 2.37117 11.8231 2.63785 12.4693 2.54901C13.5204 2.40449 14.4191 3.30318 14.2746 4.35427C14.1857 5.00044 14.4524 5.64427 14.9721 6.03835C15.8176 6.67939 15.8176 7.95034 14.9721 8.59138C14.4524 8.98547 14.1857 9.6293 14.2746 10.2755C14.4191 11.3266 13.5204 12.2252 12.4693 12.0807C11.8231 11.9919 11.1793 12.2586 10.7852 12.7783C10.1442 13.6237 8.87324 13.6237 8.2322 12.7783C7.83811 12.2586 7.19429 11.9919 6.54812 12.0807C5.49703 12.2252 4.59834 11.3266 4.74285 10.2755C4.8317 9.6293 4.56502 8.98547 4.04529 8.59138C3.19986 7.95034 3.19986 6.67939 4.04529 6.03835C4.56502 5.64427 4.8317 5.00044 4.74285 4.35427C4.59834 3.30318 5.49703 2.40449 6.54812 2.54901C7.19429 2.63785 7.83811 2.37117 8.2322 1.85144Z" fill="url(#paint1_linear_466_2016)" stroke="url(#paint2_linear_466_2016)" stroke-width="0.202938"/>
<defs>
<linearGradient id="paint0_linear_466_2016" x1="9.50886" y1="11.3789" x2="9.50886" y2="17.881" gradientUnits="userSpaceOnUse">
<stop offset="0.356397" stop-color="white" stop-opacity="0"/>
<stop offset="1" stop-color="white"/>
</linearGradient>
<linearGradient id="paint1_linear_466_2016" x1="6.07398" y1="1.27295e-07" x2="15.2625" y2="14.6393" gradientUnits="userSpaceOnUse">
<stop stop-color="#FFCC4A"/>
<stop offset="1" stop-color="#FFB74A"/>
</linearGradient>
<linearGradient id="paint2_linear_466_2016" x1="9.50871" y1="0" x2="9.50871" y2="14.6297" gradientUnits="userSpaceOnUse">
<stop stop-color="white" stop-opacity="0.3"/>
<stop offset="1" stop-color="white" stop-opacity="0"/>
</linearGradient>
</defs>
</svg>
